<?xml version="1.0" standalone="no"?>
<!DOCTYPE svg PUBLIC "-//W3C//DTD SVG 20010904//EN"
 "http://www.w3.org/TR/2001/REC-SVG-20010904/DTD/svg10.dtd">
<svg version="1.0" xmlns="http://www.w3.org/2000/svg"
 width="824.000000pt" height="824.000000pt" viewBox="0 0 824.000000 824.000000"
 preserveAspectRatio="xMidYMid meet">
<metadata>
Created by potrace 1.14, written by Peter Selinger 2001-2017
</metadata>
<g transform="translate(0.000000,824.000000) scale(0.100000,-0.100000)"
fill="#000000" stroke="none">
<path d="M5537 7989 c-91 -11 -185 -43 -263 -90 -73 -44 -457 -430 -566 -570
-151 -194 -269 -387 -348 -568 -80 -184 -91 -269 -79 -628 8 -225 6 -296 -8
-442 -19 -192 -11 -323 26 -451 87 -305 355 -508 776 -590 237 -45 408 -12
567 113 48 37 268 264 481 496 179 195 311 463 352 711 21 130 21 604 0 762
-44 335 -156 627 -326 850 -43 57 -113 151 -154 210 -41 59 -90 118 -108 132
-87 66 -187 85 -350 65z"/>
<path d="M2895 7975 c-131 -28 -137 -32 -233 -121 -51 -48 -135 -141 -187
-208 -51 -66 -133 -164 -180 -216 -99 -109 -163 -206 -200 -303 -14 -37 -52
-169 -85 -293 -34 -123 -65 -235 -70 -248 -34 -91 -42 -183 -41 -479 2 -353 6
-377 91 -612 111 -304 211 -467 397 -645 54 -52 137 -121 183 -152 l85 -57
215 -10 c292 -14 526 -1 639 34 106 34 269 142 369 244 82 84 142 192 162 288
20 96 7 330 -29 523 -18 91 -41 242 -52 335 -59 502 -162 1189 -195 1302 -55
191 -136 325 -278 461 -137 131 -246 173 -451 171 -44 0 -107 -6 -140 -14z"/>
<path d="M1159 5881 c-107 -20 -271 -130 -414 -278 -55 -57 -159 -164 -230
-237 -108 -111 -139 -149 -180 -226 -28 -50 -74 -122 -104 -158 -29 -37 -64
-90 -77 -117 -29 -62 -70 -279 -83 -440 -7 -81 -19 -148 -37 -205 -28 -85 -28
-87 -32 -425 -4 -366 7 -567 38 -701 22 -93 72 -225 101 -266 20 -28 86 -68
111 -68 7 0 58 -17 113 -39 55 -21 141 -51 190 -66 53 -16 120 -45 163 -72 93
-57 172 -72 301 -54 97 14 297 78 383 123 141 75 662 607 734 750 63 124 79
199 94 451 19 293 -9 471 -114 748 -69 183 -189 573 -215 701 -25 121 -57 199
-118 290 -97 147 -213 237 -348 272 -75 19 -216 27 -276 17z"/>
<path d="M7391 5690 c-67 -14 -140 -40 -202 -71 -100 -50 -401 -283 -669 -519
-85 -75 -186 -161 -225 -192 -109 -86 -162 -149 -292 -344 -133 -198 -171
-268 -202 -365 -48 -151 -86 -609 -60 -729 17 -83 62 -159 142 -238 95 -94
253 -212 352 -264 185 -96 295 -186 435 -358 98 -120 112 -133 181 -164 88
-41 156 -43 279 -12 195 50 321 118 441 236 129 128 156 181 351 684 155 404
220 658 288 1137 36 251 42 542 14 676 -28 136 -84 248 -166 333 -51 52 -215
140 -323 171 -80 23 -273 34 -344 19z"/>
<path d="M4125 4565 c-95 -21 -147 -44 -350 -157 -104 -58 -263 -144 -351
-192 -189 -102 -297 -185 -386 -292 -34 -42 -82 -99 -105 -126 -23 -28 -103
-108 -179 -179 -106 -100 -154 -137 -212 -166 -117 -59 -160 -104 -232 -243
-34 -65 -79 -139 -101 -164 -36 -41 -507 -423 -737 -598 -232 -178 -345 -375
-346 -608 0 -151 -1 -148 204 -586 115 -246 295 -452 531 -609 327 -218 735
-357 1159 -395 66 -6 428 -10 855 -10 846 0 898 3 1150 72 221 60 525 217 890
461 259 173 320 221 397 311 128 152 194 287 255 526 31 122 34 144 30 235 -8
170 -62 281 -195 406 -87 81 -158 133 -292 214 -119 72 -191 132 -248 210 -57
78 -82 128 -125 252 -65 186 -119 275 -272 448 -152 172 -244 317 -318 501
-90 223 -150 317 -279 440 -89 85 -235 184 -315 214 -131 49 -300 63 -428 35z
m775 -1467 c-39 -115 -69 -229 -90 -338 -39 -203 -109 -475 -151 -578 -82
-207 -190 -372 -349 -533 -159 -162 -312 -265 -626 -422 -349 -175 -511 -209
-814 -172 -149 19 -150 19 -178 -1 -15 -11 -49 -53 -75 -93 -32 -48 -52 -70
-59 -63 -6 6 4 35 31 84 45 83 50 117 22 156 -27 40 -76 139 -97 202 -15 45
-19 83 -18 205 1 301 83 558 247 777 68 90 257 275 357 350 376 280 840 455
1274 479 169 10 299 36 491 98 102 33 100 42 35 -151z"/>
</g>
</svg>
