<svg width="103" height="97" viewBox="0 0 103 97" fill="none" xmlns="http://www.w3.org/2000/svg">
	<style>
		.paw {
			fill: #183047;
		}
		@media (prefers-color-scheme: dark) {
			.paw {
				fill: #084C88 !important;
			}
		}
	</style>
	<path class="paw" d="M63.9361 50.5124L64.4148 51.7315C64.891 52.9442 65.5058 54.0977 66.2471 55.1689L67.1668 56.4981L69.0174 58.5812C70.1837 59.894 71.0714 61.4302 71.6266 63.0966L71.9297 64.0062C72.3668 65.3183 73.1033 66.5105 74.0808 67.4885C74.5956 68.0036 75.1716 68.4536 75.7959 68.8283L77.5421 69.8766C78.0121 70.1587 78.4588 70.4779 78.878 70.8311L79.9688 71.7501C81.6022 73.1264 82.5451 75.154 82.5451 77.2906C82.5451 77.9075 82.4663 78.522 82.3106 79.1189L81.8335 80.949C81.407 82.5847 80.6806 84.1271 79.6913 85.4976C78.737 86.8197 77.5536 87.9601 76.1973 88.8647L71.4637 92.0221L67.9621 93.9984C66.9886 94.5478 65.98 95.0245 64.9448 95.4262C59.6074 97.497 53.7251 98 48 98V98V98C42.8906 98 37.745 97.2991 32.7842 96.0759C31.7062 95.8101 30.6412 95.4876 29.5937 95.1091L28.8869 94.8538C27.423 94.3249 26.0138 93.6551 24.6791 92.8539L23.9015 92.387C22.0032 91.2475 20.3195 89.7838 18.9266 88.0623C17.7733 86.6369 16.833 85.0515 16.1351 83.3558L15.6045 82.0664L15.0116 80.9648C14.3616 79.7571 14.0214 78.4068 14.0214 77.0351C14.0214 75.0274 14.7498 73.0879 16.0712 71.5769L16.5226 71.0608C16.9648 70.5552 17.4562 70.0949 17.9896 69.6868L21.0321 67.359L26.7335 62.7586C27.594 62.0644 28.2769 61.1752 28.7258 60.1646L29.034 59.4709C29.5592 58.2884 30.5172 57.3521 31.7111 56.8544C32.2762 56.6189 32.7938 56.2826 33.2389 55.8621L35.7589 53.4808C36.3427 52.9291 36.8754 52.3256 37.3503 51.6777C38.5181 50.0843 40.0264 48.7715 41.7652 47.8348L45.004 46.0898L49.0233 43.8558C50.3919 43.095 51.9317 42.6958 53.4973 42.6958C55.4719 42.6958 57.3942 43.3306 58.9809 44.5065L59.8039 45.1164C61.6597 46.4918 63.0916 48.3616 63.9361 50.5124Z"/>
	<path class="paw" d="M82.6464 66.4826L81.5647 65.4003C80.6347 64.4699 79.5476 63.7114 78.3536 63.16C77.5994 62.8118 76.8866 62.3803 76.2282 61.8737L74.2789 60.3734L73.1025 59.1964C72.8323 58.926 72.5935 58.6258 72.391 58.3015C71.8529 57.4401 71.5868 56.4365 71.6273 55.4215L71.7912 51.3227L72.2435 48.3812C72.5422 47.0364 73.0989 45.7623 73.8826 44.6296L74.7312 43.4033L75.8899 41.6116C76.7666 40.2561 77.9115 39.0947 79.2542 38.1992L83.0987 34.8052L86.2525 32.2809C86.4115 32.1536 86.5717 32.0294 86.7346 31.9071L88.5167 30.5699C89.5664 29.7822 90.772 29.2274 92.0529 28.9427C93.4518 28.6316 94.9039 28.6507 96.2942 28.9985L96.5272 29.0568C97.3713 29.2679 98.1865 29.5832 98.9446 30.0105C99.672 30.4205 100.398 30.844 100.512 30.9586C100.558 31.0041 100.661 31.1173 100.799 31.2708C101.808 32.3926 102.487 33.7692 102.803 35.2444C102.934 35.8549 103 36.4776 103 37.102V41.1407C102.548 45.3581 101.773 49.5344 100.681 53.6327L100.512 54.2642L97.7985 61.2784L97.0661 63.0697C96.2186 65.1424 94.7461 66.899 92.8537 68.0948C91.9341 68.6759 90.9317 69.1142 89.8808 69.3945L88.6449 69.7243C88.2659 69.8254 87.8755 69.8766 87.4833 69.8766H87.3962C86.5133 69.8766 85.6525 69.6006 84.934 69.0872C84.6166 68.8603 84.3321 68.5907 84.0884 68.2859L82.6464 66.4826Z"/>
	<path class="paw" d="M62.8699 41.7908L61.8096 41.5256C60.7115 41.2509 59.652 40.8404 58.6554 40.3035L58.2034 40.06C57.5476 39.7067 56.9363 39.2761 56.3826 38.7776L56.342 38.741C55.4267 37.9168 54.6885 36.9148 54.1724 35.796C53.7914 34.9702 53.5366 34.0917 53.4165 33.1902L53.3477 32.674C53.2133 31.6659 53.2022 30.6451 53.3144 29.6343L53.5977 27.0834L53.4056 20.5497C53.383 19.7789 53.4411 19.0078 53.5789 18.2491C53.7416 17.354 54.0141 16.4825 54.3904 15.6543L54.9546 14.4124C56.007 12.3065 57.2789 10.3177 58.749 8.47912L60.1561 6.71934L63.7745 3.09906L64.3129 2.52633C65.3493 1.42391 66.6858 0.649492 68.1573 0.2988C68.5517 0.204803 68.9529 0.141958 69.3571 0.110846L70.6374 0.012311C71.3281 -0.0408483 72.0212 0.0787045 72.6543 0.360204C73.3546 0.671648 73.9559 1.16989 74.3922 1.80038L75.7605 3.77786L76.4495 4.62048C77.3443 5.71464 78.1147 6.90491 78.7466 8.16938C79.3175 9.31163 79.7722 10.5083 80.104 11.7415L80.2892 12.4295C80.8858 14.6469 81.1881 16.9332 81.1881 19.2295V22.6881C81.1881 24.2526 80.964 25.8091 80.5228 27.3101C80.2133 28.363 79.7987 29.3822 79.2855 30.3523L79.1904 30.532C78.415 31.9973 77.4452 33.3511 76.3074 34.5565L74.1774 36.8129L71.6273 39.5344C71.0688 40.1304 70.4269 40.6423 69.7215 41.0539L69.5557 41.1507C68.5785 41.721 67.4863 42.0658 66.3588 42.1598C65.6942 42.2152 65.0252 42.1828 64.369 42.0635L62.8699 41.7908Z"/>
	<path class="paw" d="M47.0483 39.9291L45.6824 40.8857C44.4967 41.6272 43.1387 42.0477 41.7416 42.1059L38.4456 42.2433C36.7872 42.1679 33.4251 42.017 33.2441 42.017C33.0632 42.017 31.8119 41.112 31.2088 40.6594L31.1029 40.5747C29.6732 39.4303 28.4142 38.0874 27.3642 36.5866C26.4631 35.2343 25.7338 33.7749 25.1932 32.2423L24.6504 30.7037L24.4177 30.1217C23.9739 29.0114 23.7458 27.8266 23.7458 26.6309V23.4631C23.7458 23.3858 23.7183 22.8934 23.681 22.2606C23.578 20.5168 23.8276 18.7693 24.4243 17.1276L25.555 12.8286L25.9133 11.6336C26.1261 10.9239 26.4149 10.2392 26.7745 9.59146C27.1663 8.88592 27.6396 8.2289 28.1847 7.63393L29.8519 5.81427L32.1134 2.87279C32.9426 2.04315 34.4282 0.73341 34.601 0.679998C34.8272 0.610123 36.2595 0.233009 36.8626 0.157586H38.9692C39.8168 0.157586 40.655 0.335559 41.4296 0.679998C41.9999 0.93358 42.5276 1.2738 42.994 1.68861L43.5697 2.20064C44.0725 2.6478 44.5345 3.14161 44.9475 3.67289C45.5839 4.4915 46.1039 5.39781 46.4889 6.36069L46.6525 6.77007C47.0598 7.78873 47.3476 8.85119 47.5103 9.93618L47.9439 12.8286L48.6224 17.5802L49.3008 22.558L49.7531 26.4046L50.4513 30.2466C50.5887 31.0023 50.6577 31.7689 50.6577 32.537V33.7253C50.6577 34.5692 50.4968 35.4053 50.1836 36.1888C49.8988 36.9011 49.4926 37.5587 48.9832 38.1321L48.6702 38.4843C48.1877 39.0275 47.6434 39.5123 47.0483 39.9291Z"/>
	<path class="paw" d="M27.8165 53.1041L27.7647 53.8306C27.6504 55.4307 27.1228 56.9736 26.2335 58.3083C24.1259 60.8688 21.8154 63.2548 19.3504 65.473C19.0325 65.7591 18.8169 65.955 18.7705 66.0014C17.8657 66.9066 16.5911 67.3317 15.376 67.7368L14.4736 68.0378C13.7198 68.3395 12.1669 68.4903 11.986 68.4903C11.8669 68.4903 11.219 68.4903 10.5965 68.4258C10.0106 68.3651 9.48078 68.0899 9.00147 67.7473C8.43262 67.3408 7.79618 67.0385 7.12175 66.8545L5.65377 66.4539L3.61591 65.6383C3.46724 65.5788 3.3126 65.5355 3.15466 65.5092C2.45142 65.3919 1.84672 64.9451 1.52788 64.3071L1.3569 63.965L1.0462 63.1878C0.651681 62.201 0.37638 61.1706 0.226151 60.1184L0 57.1769V49.6767C0 48.8007 0.153071 47.9314 0.452301 47.108C0.751531 46.2847 0.904603 45.4154 0.904603 44.5394V44.4151C0.904603 43.8736 0.958057 43.3335 1.06419 42.8026L1.3569 41.3382L1.38796 41.0586C1.5154 39.911 1.89779 38.7607 2.71381 37.9442C2.82206 37.8359 3.07071 37.5062 3.30952 37.178C3.59414 36.7868 3.84023 36.3693 4.05645 35.9366L4.16353 35.7223C4.40252 35.2439 4.69136 34.7922 5.02526 34.3746C5.29301 34.0397 5.58866 33.7282 5.90901 33.4433L6.60455 32.8247C7.17539 32.317 7.69384 31.7533 8.15209 31.142C8.59623 30.5495 9.09694 30.0016 9.64714 29.5062L10.0131 29.1767C10.7239 28.5366 11.4892 27.9597 12.3001 27.4526L12.8906 27.0834C13.6305 26.6392 14.4771 26.4046 15.34 26.4046H15.7571C16.7045 26.4046 17.6456 26.5574 18.5444 26.8571L19.0538 27.0756C19.763 27.3797 20.4077 27.8164 20.9534 28.3623C21.1563 28.5654 21.3446 28.7826 21.5168 29.0123L22.1454 29.8509C22.4579 30.2677 22.7322 30.7118 22.9651 31.1778C23.3329 31.9139 23.5944 32.6985 23.7415 33.5082L23.972 34.7765L25.7812 40.6594L26.7848 43.2952C27.3198 44.7004 27.6792 46.1663 27.8548 47.6597C27.9798 48.7229 28.0111 49.795 27.9483 50.8637L27.8165 53.1041Z"/>
	<path d="M32.8355 87.8235L32.2607 88.7447C32.2365 88.7834 32.2019 88.8144 32.1607 88.8342L32.1189 88.8543C31.9785 88.9218 31.8158 88.8195 31.8158 88.6637C31.8158 88.6271 31.8253 88.5911 31.8433 88.5593L32.7168 87.0198C32.9156 86.6694 32.9061 86.2382 32.6922 85.8968L32.5051 85.6214C31.6532 84.3672 31.1521 82.9081 31.0537 81.3952C31.018 80.8454 31.0358 80.2935 31.1068 79.7473L31.3239 78.0771C31.5148 76.609 31.9219 75.1771 32.532 73.8281C33.2722 72.1913 34.3003 70.7007 35.5673 69.4272L36.4056 68.5846C37.5569 67.4274 38.8359 66.4045 40.2179 65.5358L41.1637 64.9412C42.6784 63.989 44.2788 63.1802 45.9438 62.5253L46.0079 62.5002C47.286 61.9975 48.5995 61.5901 49.9377 61.2813L51.4517 60.932C52.4981 60.6905 53.5685 60.5686 54.6423 60.5686C56.0053 60.5686 57.3611 60.3723 58.668 59.9857L59.3487 59.7843L61.833 59.0494C61.9164 59.0247 62 59.0872 62 59.1742C62 59.1887 61.9976 59.2031 61.9928 59.2168L61.0063 62.0622C60.7174 62.8954 60.4901 63.7487 60.3262 64.6153L59.7566 67.6275L58.9962 70.5516C58.688 71.7368 58.2694 72.8906 57.746 73.9977C56.9156 75.7542 55.8287 77.3775 54.5209 78.8144L54.4543 78.8876C52.9684 80.5202 51.2259 81.8991 49.2954 82.9698L46.9079 84.2941L43.9677 85.7075C42.1442 86.5841 40.1468 87.0392 38.1236 87.0392C37.4544 87.0392 36.7862 86.9894 36.1244 86.8902L34.6064 86.6628C34.5367 86.6523 34.4662 86.6471 34.3957 86.6471C33.9294 86.6471 33.4928 86.8756 33.2272 87.2588L32.8355 87.8235Z" fill="#57B55B"/>
</svg>
